<?xml version="1.0" encoding="UTF-8"?>
<!-- Generated by Pixelmator Pro 3.6.13 -->
<svg width="120" height="30" viewBox="0 0 3200 800" xmlns="http://www.w3.org/2000/svg">
    <g id="Group">
        <path id="Path-copy-4" fill="#000000" stroke="none" d="M 108.476952 224.595764 C 145.724289 164.373474 195.874817 119.789917 259.151855 89.994263 C 289.461761 75.722046 321.486481 67.637634 354.64447 63.12439 C 444.685059 50.868896 525.187256 75.021667 596.284912 129.346313 C 665.407593 182.161743 708.344543 252.101135 724.625977 338.355652 C 739.070923 414.881439 727.605225 487.838898 691.690002 555.531189 C 637.980713 656.762146 553.975464 719.382019 439.471771 736.699768 C 380.624664 745.600098 323.573456 736.13385 268.615021 712.697083 C 223.399857 693.415405 185.459885 665.581787 152.457886 628.797729 C 130.226883 604.019226 111.095192 577.687866 94.656441 549.244507 C 77.638733 519.799561 69.533913 487.040039 64.380165 453.698822 C 61.420177 434.549164 59.470268 415.227875 59.622963 395.726715 C 60.102997 334.425079 77.758575 278.079224 108.476952 224.595764 M 681.406494 492.957947 C 695.522888 454.652863 697.879578 414.864166 695.893311 374.627808 C 694.045349 337.191284 684.32843 301.389404 668.377258 267.817566 C 644.153137 216.833191 608.787354 174.820618 561.277954 143.484314 C 497.580933 101.471191 427.933807 81.94043 352.360565 94.990417 C 256.16272 111.601746 180.093353 160.110901 131.283951 246.864929 C 124.148598 259.547241 117.788719 272.619568 112.537491 286.317505 C 94.276489 333.951355 91.498146 383.191895 97.110733 433.12619 C 105.328949 506.241272 133.853836 569.673523 188.182129 620.694946 C 254.009293 682.514832 330.884003 713.477295 421.875671 706.324951 C 466.74472 702.797852 508.801178 688.999084 546.649414 665.686218 C 611.991638 625.437622 658.220947 569.001099 681.406494 492.957947 Z"/>
        <path id="Path-copy-3" fill="#000000" stroke="none" d="M 444.456512 337.353729 C 436.353271 333.258942 429.446869 328.562866 431.414368 319.224213 C 433.279327 310.372742 440.185852 304.906311 448.963135 304.02774 C 485.299652 300.390228 516.671326 283.869019 547.954529 266.945313 C 554.7901 263.247437 561.108337 258.627869 569.590271 258.652344 C 578.127319 258.676758 582.477356 263.216125 585.462524 270.357788 C 588.380188 277.338257 585.634338 282.660645 580.930664 287.527405 C 576.83136 291.768951 570.296082 293.272705 567.250427 300.047241 C 586.918823 316.036011 599.76355 336.102264 600.720642 362.432831 C 601.487 383.513184 589.045471 399.164886 578.285217 415.104126 C 563.798401 436.563416 528.197083 444.474182 499.795349 434.082581 C 481.029816 427.216644 468.180969 414.207581 461.194763 395.848938 C 454.395935 377.983276 454.636963 359.380585 458.86441 341.231323 C 454.309235 337.651306 449.24411 339.957764 444.456512 337.353729 M 503.244507 334.908264 C 497.183777 352.078949 503.698456 366.517181 520.784912 373.782166 C 532.911011 378.93811 548.991821 371.90567 555.391846 358.647552 C 561.640259 345.704193 554.980713 329.45929 540.057739 321.242584 C 527.52063 314.339508 512.514832 319.392975 503.244507 334.908264 Z"/>
        <path id="Path-copy-2" fill="#000000" stroke="none" d="M 333.20459 373.403534 C 324.962921 403.476685 310.6315 427.409973 279.401398 436.259796 C 241.853333 446.899872 198.726563 418.919434 192.37355 380.44696 C 186.835037 346.907349 200.015823 321.66803 226.508682 302.07782 C 224.975906 297.583557 220.566498 296.456116 217.615967 293.836304 C 212.408173 289.21225 208.791443 284.016663 207.736511 276.860413 C 206.617081 269.267151 209.106506 263.717468 215.242752 259.50647 C 221.268097 255.371521 227.311401 256.070618 233.103165 259.822021 C 247.259445 268.991089 262.289734 276.44696 277.421875 283.862427 C 299.188599 294.529114 322.37796 299.420013 345.928864 303.636475 C 359.408875 306.049957 366.325806 314.51358 364.222534 324.374939 C 361.820313 335.638428 352.497833 340.926056 339.100433 338.488312 C 336.571014 338.028015 334.220856 336.442902 329.963989 338.020355 C 331.477081 349.122589 334.532898 360.648224 333.20459 373.403534 M 249.898407 321.604919 C 229.351028 332.214935 226.537155 346.915588 241.882141 363.484802 C 250.902451 373.224762 260.508087 375.690796 272.104706 371.241913 C 282.999603 367.062225 290.659851 360.218811 291.287781 347.701141 C 291.822571 337.041199 284.040466 325.178619 273.152039 320.454559 C 265.958313 317.333313 258.649872 317.509308 249.898407 321.604919 Z"/>
        <path id="Path-copy" fill="#000000" stroke="none" d="M 336.859314 463.527954 C 332.366486 450.595001 337.26767 440.636353 349.64328 436.822968 C 355.693024 434.958954 361.982178 434.06308 368.428436 434.105743 C 389.00708 434.242401 409.589569 434.288086 430.166595 434.039612 C 439.574799 433.926025 446.867249 437.545013 452.352875 444.899323 C 456.943298 451.053497 458.35434 457.607971 454.062012 464.706543 C 449.82785 471.708832 443.298889 473.69812 435.810669 473.059631 C 408.591522 470.738892 381.39801 470.708557 354.184753 473.151276 C 346.829132 473.811432 341.194794 470.580017 336.859314 463.527954 Z"/>
    </g>
    <path id="Bundle" fill="#000000" fill-rule="evenodd" stroke="none" d="M 2967.199951 445.200012 L 3105.199951 445.200012 L 3105.199951 427.200012 C 3105.199951 363.600006 3068 320 3014 320 C 2958.800049 320 2919.199951 366 2919.199951 430.799988 C 2919.199951 496.799988 2960.399902 544 3018.399902 544 C 3060.800049 544 3094 518.400024 3101.199951 480 L 3055.600098 480 C 3050.800049 493.600006 3036.399902 502 3018.399902 502 C 2989.600098 502 2971.199951 480.799988 2967.199951 445.200012 Z M 3014 360.799988 C 3037.600098 360.799988 3054.800049 379.200012 3057.199951 407.600006 L 2968.399902 407.600006 C 2974 378.399994 2990.800049 360.799988 3014 360.799988 Z M 2788 462.799988 L 2788 244 L 2678 244 L 2678 288 L 2740 288 L 2740 462.799988 C 2740 516 2766.800049 544 2818 544 C 2834.399902 544 2850 541.200012 2862 535.599976 L 2862 495.600006 C 2850.399902 500.799988 2838.399902 503.200012 2827.199951 503.200012 C 2800.800049 503.200012 2788 490 2788 462.799988 Z M 2583.600098 540 L 2629.600098 540 C 2628 514.799988 2626.800049 488.399994 2626.800049 468 L 2626.800049 244 L 2578.800049 244 L 2578.800049 356 L 2576.800049 356 C 2564.399902 332.799988 2544.800049 320 2519.199951 320 C 2469.600098 320 2432.399902 368 2432.399902 432 C 2432.399902 496.399994 2469.199951 544 2518.800049 544 C 2546 544 2566.399902 530 2578.399902 504.399994 L 2580.399902 504.399994 C 2581.199951 516 2582 527.200012 2583.600098 540 Z M 2530 500 C 2501.600098 500 2480.399902 470.799988 2480.399902 432 C 2480.399902 393.200012 2501.600098 364 2530 364 C 2558.399902 364 2579.600098 393.200012 2579.600098 432 C 2579.600098 470.799988 2558.399902 500 2530 500 Z M 2210 540 L 2258 540 L 2258 414 C 2258 382.399994 2275.199951 360 2299.199951 360 C 2318.399902 360 2330 374.399994 2330 398 L 2330 540 L 2378 540 L 2378 394 C 2378 349.200012 2352.399902 320 2312.800049 320 C 2288 320 2268.800049 331.600006 2257.600098 352.399994 L 2256 352.399994 L 2256 324 L 2210 324 Z M 2139.600098 468 L 2139.600098 324 L 2091.600098 324 L 2091.600098 450 C 2091.600098 481.600006 2074.399902 504 2050.399902 504 C 2031.199951 504 2019.599976 489.600006 2019.599976 466 L 2019.599976 324 L 1971.599976 324 L 1971.599976 470 C 1971.599976 514.799988 1997.199951 544 2036.800049 544 C 2061.600098 544 2080.800049 532.400024 2092 511.600006 L 2093.600098 511.600006 C 2094.399902 520.799988 2095.199951 530 2096.399902 540 L 2142.399902 540 C 2140.800049 514.799988 2139.600098 488.399994 2139.600098 468 Z M 1718.800049 540 L 1818.800049 540 C 1867.599976 540 1903.199951 506 1903.199951 460 C 1903.199951 430 1888 406.399994 1863.599976 394 L 1863.599976 392.399994 C 1882.800049 380 1894.400024 359.200012 1894.400024 334.399994 C 1894.400024 291.600006 1860.800049 260 1814.800049 260 L 1718.800049 260 Z M 1768.800049 372.799988 L 1768.800049 304 L 1814.800049 304 C 1833.199951 304 1846.400024 318.399994 1846.400024 338.399994 C 1846.400024 358.399994 1833.199951 372.799988 1814.800049 372.799988 Z M 1768.800049 496 L 1768.800049 416.799988 L 1818.800049 416.799988 C 1839.199951 416.799988 1853.199951 433.200012 1853.199951 456.399994 C 1853.199951 479.600006 1839.199951 496 1818.800049 496 Z"/>
    <path id="Bad" fill="#000000" fill-rule="evenodd" stroke="none" d="M 1498.599976 540 L 1544.599976 540 C 1543 514.799988 1541.800049 488.399994 1541.800049 468 L 1541.800049 244 L 1493.800049 244 L 1493.800049 356 L 1491.800049 356 C 1479.400024 332.799988 1459.800049 320 1434.199951 320 C 1384.599976 320 1347.400024 368 1347.400024 432 C 1347.400024 496.399994 1384.199951 544 1433.800049 544 C 1461 544 1481.400024 530 1493.400024 504.399994 L 1495.400024 504.399994 C 1496.199951 516 1497 527.200012 1498.599976 540 Z M 1445 500 C 1416.599976 500 1395.400024 470.799988 1395.400024 432 C 1395.400024 393.200012 1416.599976 364 1445 364 C 1473.400024 364 1494.599976 393.200012 1494.599976 432 C 1494.599976 470.799988 1473.400024 500 1445 500 Z M 1246.199951 390 C 1246.199951 402 1240.599976 407.600006 1227 408.799988 L 1213.800049 410 C 1150.199951 415.600006 1119.800049 437.600006 1119.800049 477.600006 C 1119.800049 516.799988 1148.599976 544 1189.800049 544 C 1216.199951 544 1236.199951 532.400024 1247.800049 512 L 1249.800049 512 C 1251.400024 522.400024 1253.400024 532 1255.800049 540 L 1302.199951 540 C 1297 518 1294.199951 492 1294.199951 462.799988 L 1294.199951 389.600006 C 1294.199951 348 1261 320 1211.400024 320 C 1162.599976 320 1127.400024 346.799988 1127 384 L 1173.800049 384 C 1175.400024 369.600006 1190.199951 360 1210.599976 360 C 1233 360 1246.199951 371.600006 1246.199951 390 Z M 1199.800049 506 C 1180.199951 506 1167.800049 494.399994 1167.800049 476.799988 C 1167.800049 457.200012 1182.599976 446.799988 1217.800049 442.399994 L 1230.599976 440.799988 C 1236.599976 440 1241.800049 438.399994 1246.199951 436 L 1246.199951 458.399994 C 1246.199951 485.200012 1225.800049 506 1199.800049 506 Z M 873.799988 540 L 973.799988 540 C 1022.599976 540 1058.199951 506 1058.199951 460 C 1058.199951 430 1043 406.399994 1018.599976 394 L 1018.599976 392.399994 C 1037.800049 380 1049.400024 359.200012 1049.400024 334.399994 C 1049.400024 291.600006 1015.799988 260 969.799988 260 L 873.799988 260 Z M 923.799988 372.799988 L 923.799988 304 L 969.799988 304 C 988.200012 304 1001.400024 318.399994 1001.400024 338.399994 C 1001.400024 358.399994 988.200012 372.799988 969.799988 372.799988 Z M 923.799988 496 L 923.799988 416.799988 L 973.799988 416.799988 C 994.200012 416.799988 1008.200012 433.200012 1008.200012 456.399994 C 1008.200012 479.600006 994.200012 496 973.799988 496 Z"/>
</svg>
